inDegrees=yes
name=wink_l_res.mot
DataType=double
version=3
OpenSimVersion=4.4-2022-07-23-0e9fedc
endheader
time	pelvis_tilt	pelvis_list	pelvis_rotation	pelvis_tx	pelvis_ty	pelvis_tz	hip_flexion_r	hip_adduction_r	hip_rotation_r	knee_angle_r	knee_angle_r_beta	ankle_angle_r	subtalar_angle_r	mtp_angle_r	hip_flexion_l	hip_adduction_l	hip_rotation_l	knee_angle_l	knee_angle_l_beta	ankle_angle_l	subtalar_angle_l	mtp_angle_l	lumbar_extension	lumbar_bending	lumbar_rotation	arm_flex_r	arm_add_r	arm_rot_r	elbow_flex_r	pro_sup_r	wrist_flex_r	wrist_dev_r	arm_flex_l	arm_add_l	arm_rot_l	elbow_flex_l	pro_sup_l	wrist_flex_l	wrist_dev_l
25	-0.3881699697187511	0.5512307032202112	89.72364678647989	0	0.9399999999999999	0	41.95619343255864	-10.34871835438767	0	58.32080215055875	1.01789001993144	-5.09520534939803	0	0	41.95619343255864	-10.34871835438767	0	58.32080215055875	1.01789001993144	-5.09520534939803	0	0	-0.8482439987550082	-1.199100587990884	0.957983301190517	0	-10.48335438496986	0	75.75231345412455	46.54035847717851	0	0	58.27120446170348	-4.596305636794102	-44.8440684380305	0.0162293856357559	46.54035847717851	0	0
26	-0.3584384526106669	0.5331253808015041	89.74904573440776	0	0.9399999999999999	0	41.96842321133407	-10.34521020892579	0	58.32737489298706	1.018004735927699	-5.094044966754953	0	0	41.96842321133407	-10.34521020892579	0	58.32737489298706	1.018004735927699	-5.094044966754953	0	0	-0.8382798533327992	-1.186601276909476	0.9414020259229551	0	-10.49423089804825	0	75.74929374407493	46.52727506304145	0	0	63.19457082164993	-15.57087976069068	-41.7667742358596	0.02223626996279135	46.52727506304145	0	0
27	-0.39221949766229	0.5528247371232516	89.71951773229306	0	0.9399999999999999	0	41.98055120519799	-10.3417600389593	0	58.33390172991511	1.018118650721834	-5.092906811263496	0	0	41.98055120519799	-10.3417600389593	0	58.33390172991511	1.018118650721834	-5.092906811263496	0	0	-0.8486723753587267	-1.200184505909177	0.9497334015215739	0	-10.5050442261268	0	75.74629912463513	46.51438176260328	0	0	67.53409674019133	-25.11120641400754	-36.84000636520649	0.02707977843195943	46.51438176260328	0	0
28	-0.3756751119337478	0.5510285543407882	89.73682769923815	0	0.9399999999999999	0	41.99699288360536	-10.33709292104445	0	58.34277676639635	1.018273549329667	-5.09136715004337	0	0	41.99699288360536	-10.33709292104445	0	58.34277676639635	1.018273549329667	-5.09136715004337	0	0	-0.8399657228555656	-1.190083846825051	0.9323843941279268	0	-10.51973097036965	0	75.74223933734483	46.49693829103761	0	0	73.75598898993221	-31.34412237513843	-28.4412946669874	0.04190648442332005	46.49693829103761	0	0
29	-0.3778502598378277	0.5512290544025265	89.72951165556714	0	0.9399999999999999	0	42.01155573533336	-10.332485679416	0	58.3501264867886	1.018401826149613	-5.089809103822141	0	0	42.01155573533336	-10.332485679416	0	58.3501264867886	1.018401826149613	-5.089809103822141	0	0	-0.8393722988873333	-1.190958638722922	0.9510690178851857	0	-10.53214534256543	0	75.73864429572242	46.48008628098513	0	0	77.41722808511574	-33.11400352150284	-24.73649832512438	1.963304213594357	46.48008628098513	0	0
30	-0.3698726574385058	0.5486995838255639	89.73322180641536	0	0.9399999999999999	0	42.02960455009402	-10.32739292284586	0	58.3597995331774	1.018570652657795	-5.088135622595001	0	0	42.02960455009402	-10.32739292284586	0	58.3597995331774	1.018570652657795	-5.088135622595001	0	0	-0.8400513905122392	-1.18366807947868	0.9516623458513133	0	-10.54825721509417	0	75.73418767636453	46.46100614971605	0	0	75.44817451709005	-32.16077589814834	-28.157912107368	2.5099679279568	46.46100614971605	0	0
31	-0.3697182941328806	0.5568740480073914	89.72333100991864	0	0.9399999999999999	0	42.04876257450218	-10.32169543183766	0	58.36972512338777	1.01874388688717	-5.086243096337755	0	0	42.04876257450218	-10.32169543183766	0	58.36972512338777	1.01874388688717	-5.086243096337755	0	0	-0.8400671207957439	-1.180292239081244	0.9616142452214776	0	-10.5649603513184	0	75.72945769647821	46.43987186739117	0	0	69.21897400324718	-27.23967954457255	-34.9049514712106	0.08135308524677598	46.43987186739117	0	0
32	-0.3763571036558415	0.550505700287453	89.71873905418917	0	0.9399999999999999	0	42.06930592036539	-10.31585124437928	0	58.38055233572118	1.0189328573912	-5.084325932100799	0	0	42.06930592036539	-10.31585124437928	0	58.38055233572118	1.0189328573912	-5.084325932100799	0	0	-0.8488708996237008	-1.196347978062044	0.9780126493064329	0	-10.58315970594836	0	75.72438528318422	46.41797624848498	0	0	62.12771441176098	-19.3884680023249	-39.99921588893595	0.02120549331482106	46.41797624848498	0	0
33	-0.9279026337190003	0.1844922960251997	88.83022940463381	0	0.9399999999999999	0	42.07238113081745	-10.31470818859367	0	58.38188922410944	1.018956190495307	-5.083929494902153	0	0	42.07238113081745	-10.31470818859367	0	58.38188922410944	1.018956190495307	-5.083929494902153	0	0	-0.4550971745838283	-1.755719692636399	1.854238679320378	0	-10.58553911123455	0	75.72362643204177	46.41390098239992	0	0	58.79357641763779	-8.517935743104433	-41.22677262836412	0.01402502363191316	46.41390098239992	0	0
34	-0.3753738396066402	0.5473010899584688	89.72693441855412	0	0.9399999999999999	0	42.08312852092568	-10.3118443504269	0	58.3877100325242	1.019057782767273	-5.083006491459482	0	0	42.08312852092568	-10.3118443504269	0	58.3877100325242	1.019057782767273	-5.083006491459482	0	0	-0.8517645724527294	-1.201407262835655	0.9617851210854192	0	-10.59529102520884	0	75.72097245586922	46.40301568650452	0	0	57.45984273856695	2.063372038616255	-40.48117384046141	0.01199089655924737	46.40301568650452	0	0
35	-0.9249178054890382	0.1840919882391628	88.83214835974111	0	0.9399999999999999	0	42.10065276712246	-10.3072051893972	0	58.39723406390976	1.019224008473014	-5.081513669806858	0	0	42.10065276712246	-10.3072051893972	0	58.39723406390976	1.019224008473014	-5.081513669806858	0	0	-0.452729700428802	-1.749019677140438	1.848796234868397	0	-10.6112374980392	0	75.7166449306351	46.38535920115179	0	0	54.88672276046952	11.69422252309928	-38.68429897065667	0.01049048501425687	46.38535920115179	0	0
36	-0.9282848157596931	0.1824850376578815	88.83200494012867	0	0.9399999999999999	0	42.1164022920971	-10.30304989623419	0	58.40578855140988	1.019373312445712	-5.080178027395449	0	0	42.1164022920971	-10.30304989623419	0	58.40578855140988	1.019373312445712	-5.080178027395449	0	0	-0.4490918108782396	-1.747794816848455	1.84850555801811	0	-10.62558486499293	0	75.71275564198645	46.36953140139847	0	0	52.89959530314204	18.32669154825881	-35.82383151754049	0.008905186748491311	46.36953140139847	0	0
37	-0.9241967824082826	0.1880675669724659	88.83455622523813	0	0.9399999999999999	0	42.12989817374973	-10.29950786022093	0	58.41313403238018	1.019501515273786	-5.079040924688257	0	0	42.12989817374973	-10.29950786022093	0	58.41313403238018	1.019501515273786	-5.079040924688257	0	0	-0.456727756055983	-1.744006747089715	1.844000904710111	0	-10.63790791760165	0	75.70942284502512	46.35602544431315	0	0	52.01734070070006	24.49918854324595	-35.15430301829016	0.01167692420421513	46.35602544431315	0	0
38	-0.9266119792659397	0.1818007218005009	88.83154438025777	0	0.9399999999999999	0	42.13153782878338	-10.2988603611254	0	58.4138360146834	1.019513767176268	-5.078813205859524	0	0	42.13153782878338	-10.2988603611254	0	58.4138360146834	1.019513767176268	-5.078813205859524	0	0	-0.4480440626962963	-1.752025121916377	1.849916213985531	0	-10.63914444833381	0	75.70901826614093	46.35374506985121	0	0	54.75092126092895	25.58813806765298	-36.39027107908893	0.01968381392079437	46.35374506985121	0	0
39	-0.9165605708750793	0.1706116906299726	88.83918291513349	0	0.9399999999999999	0	42.14271002648749	-10.29588851763465	0	58.41984098334611	1.019618573650911	-5.077856948622228	0	0	42.14271002648749	-10.29588851763465	0	58.41984098334611	1.019618573650911	-5.077856948622228	0	0	-0.4559424487083815	-1.746080913060496	1.830780249793731	0	-10.64927825066099	0	75.70625938337891	46.34243961967316	0	0	57.89392105272484	21.27245416388203	-38.86904663093801	0.04215581349587841	46.34243961967316	0	0
40	-0.9266325014077526	0.1810426710149936	88.83280982206614	0	0.9399999999999999	0	42.16437777446393	-10.29028958397171	0	58.43164482545281	1.019824589560059	-5.076070049574615	0	0	42.16437777446393	-10.29028958397171	0	58.43164482545281	1.019824589560059	-5.076070049574615	0	0	-0.4453382036723347	-1.752995886358687	1.846977203708362	0	-10.66914211674851	0	75.7009084388357	46.32100144856098	0	0	60.9235471828058	12.94892695870063	-40.94486256823772	0.06884951761227692	46.32100144856098	0	0
41	-0.9208530003035571	0.1753229535118216	88.83472681837573	0	0.9399999999999999	0	42.1810086100612	-10.28607283643064	0	58.44067692664209	1.019982229464185	-5.074734573435784	0	0	42.1810086100612	-10.28607283643064	0	58.44067692664209	1.019982229464185	-5.074734573435784	0	0	-0.4426522541145141	-1.755378239459334	1.840028421065478	0	-10.68444006421927	0	75.69680131311793	46.30476750621603	0	0	62.16513847945051	1.90973420231205	-42.46398333100336	0.04670336514703345	46.30476750621603	0	0
42	-0.9167409794052973	0.179000050873069	88.83686906557504	0	0.9399999999999999	0	42.19231442315014	-10.2832098667197	0	58.44677921354899	1.020088734462612	-5.073829309088215	0	0	42.19231442315014	-10.2832098667197	0	58.44677921354899	1.020088734462612	-5.073829309088215	0	0	-0.4413566721839193	-1.746290507364171	1.843988983417072	0	-10.69482644457338	0	75.69400926134182	46.29373551199604	0	0	63.33046320832528	-9.248116738349848	-41.76032941029327	0.04005413513138568	46.29373551199604	0	0
43	-0.9187694280849449	0.189368081082325	88.83800495785299	0	0.9399999999999999	0	42.20397480759126	-10.28027790676333	0	58.45307831212548	1.020198674472679	-5.072904382939354	0	0	42.20397480759126	-10.28027790676333	0	58.45307831212548	1.020198674472679	-5.072904382939354	0	0	-1.129505771129316	-2.05576182042094	1.499790949401344	0	-10.70556109764497	0	75.69112961686572	46.28241789979812	0	0	67.13774520852353	-20.2076686017718	-39.20773967157756	0.04587453871791599	46.28241789979812	0	0
44	-0.9327531506847375	0.1861120912185968	88.84706311325198	0	0.9399999999999999	0	42.22179419089814	-10.27556739070386	0	58.46243111382818	1.020361911656678	-5.071400360231573	0	0	42.22179419089814	-10.27556739070386	0	58.46243111382818	1.020361911656678	-5.071400360231573	0	0	-1.141005126025863	-2.06453619563846	1.489552538793192	0	-10.72163662966298	0	75.68672932857118	46.26442190821689	0	0	71.07346354327714	-27.30234538639536	-35.63842490209207	0.2280085323318892	46.26442190821689	0	0
